<mxfile host="app.diagrams.net" agent="Mozilla/5.0 (Windows NT 10.0; Win64; x64) AppleWebKit/537.36 (KHTML, like Gecko) Chrome/132.0.0.0 Safari/537.36" version="26.0.10">
  <diagram name="Page-1" id="JR7wk3ikz5wLLiDKSVqI">
    <mxGraphModel dx="2043" dy="2643" grid="1" gridSize="10" guides="1" tooltips="1" connect="1" arrows="1" fold="1" page="1" pageScale="1" pageWidth="850" pageHeight="1100" math="0" shadow="0">
      <root>
        <mxCell id="0" />
        <mxCell id="1" parent="0" />
        <mxCell id="hMm1spZbtBt_gbhy8hQx-1" value="" style="endArrow=none;html=1;rounded=0;strokeWidth=2;exitX=0.981;exitY=0.39;exitDx=0;exitDy=0;exitPerimeter=0;" edge="1" parent="1" source="hMm1spZbtBt_gbhy8hQx-14">
          <mxGeometry width="50" height="50" relative="1" as="geometry">
            <mxPoint x="80" y="440" as="sourcePoint" />
            <mxPoint x="290" y="440" as="targetPoint" />
          </mxGeometry>
        </mxCell>
        <mxCell id="hMm1spZbtBt_gbhy8hQx-2" value="" style="endArrow=none;html=1;rounded=0;strokeWidth=2;" edge="1" parent="1">
          <mxGeometry width="50" height="50" relative="1" as="geometry">
            <mxPoint x="289" y="440" as="sourcePoint" />
            <mxPoint x="329" y="400" as="targetPoint" />
          </mxGeometry>
        </mxCell>
        <mxCell id="hMm1spZbtBt_gbhy8hQx-3" value="" style="endArrow=none;html=1;rounded=0;strokeWidth=2;" edge="1" parent="1">
          <mxGeometry width="50" height="50" relative="1" as="geometry">
            <mxPoint x="329" y="400" as="sourcePoint" />
            <mxPoint x="850" y="400" as="targetPoint" />
          </mxGeometry>
        </mxCell>
        <mxCell id="hMm1spZbtBt_gbhy8hQx-5" value="" style="endArrow=none;html=1;rounded=0;strokeWidth=2;exitX=1;exitY=0.5;exitDx=0;exitDy=0;" edge="1" parent="1" source="hMm1spZbtBt_gbhy8hQx-15">
          <mxGeometry width="50" height="50" relative="1" as="geometry">
            <mxPoint x="120" y="520" as="sourcePoint" />
            <mxPoint x="440" y="520" as="targetPoint" />
          </mxGeometry>
        </mxCell>
        <mxCell id="hMm1spZbtBt_gbhy8hQx-6" value="" style="endArrow=none;html=1;rounded=0;strokeWidth=2;" edge="1" parent="1">
          <mxGeometry width="50" height="50" relative="1" as="geometry">
            <mxPoint x="439" y="520" as="sourcePoint" />
            <mxPoint x="479" y="480" as="targetPoint" />
          </mxGeometry>
        </mxCell>
        <mxCell id="hMm1spZbtBt_gbhy8hQx-7" value="" style="endArrow=none;html=1;rounded=0;strokeWidth=2;" edge="1" parent="1">
          <mxGeometry width="50" height="50" relative="1" as="geometry">
            <mxPoint x="479" y="480" as="sourcePoint" />
            <mxPoint x="850" y="480" as="targetPoint" />
          </mxGeometry>
        </mxCell>
        <mxCell id="hMm1spZbtBt_gbhy8hQx-8" value="" style="endArrow=none;html=1;rounded=0;strokeWidth=2;exitX=1;exitY=0.5;exitDx=0;exitDy=0;" edge="1" parent="1" source="hMm1spZbtBt_gbhy8hQx-16">
          <mxGeometry width="50" height="50" relative="1" as="geometry">
            <mxPoint x="159" y="600" as="sourcePoint" />
            <mxPoint x="640" y="600" as="targetPoint" />
          </mxGeometry>
        </mxCell>
        <mxCell id="hMm1spZbtBt_gbhy8hQx-9" value="" style="endArrow=none;html=1;rounded=0;strokeWidth=2;" edge="1" parent="1">
          <mxGeometry width="50" height="50" relative="1" as="geometry">
            <mxPoint x="638" y="600" as="sourcePoint" />
            <mxPoint x="678" y="560" as="targetPoint" />
          </mxGeometry>
        </mxCell>
        <mxCell id="hMm1spZbtBt_gbhy8hQx-10" value="" style="endArrow=none;html=1;rounded=0;strokeWidth=2;" edge="1" parent="1">
          <mxGeometry width="50" height="50" relative="1" as="geometry">
            <mxPoint x="680" y="560" as="sourcePoint" />
            <mxPoint x="850" y="560" as="targetPoint" />
          </mxGeometry>
        </mxCell>
        <mxCell id="hMm1spZbtBt_gbhy8hQx-11" value="" style="endArrow=none;html=1;rounded=0;strokeWidth=2;exitX=1;exitY=0.5;exitDx=0;exitDy=0;" edge="1" parent="1" source="hMm1spZbtBt_gbhy8hQx-17">
          <mxGeometry width="50" height="50" relative="1" as="geometry">
            <mxPoint x="240" y="680" as="sourcePoint" />
            <mxPoint x="720" y="680" as="targetPoint" />
          </mxGeometry>
        </mxCell>
        <mxCell id="hMm1spZbtBt_gbhy8hQx-12" value="" style="endArrow=none;html=1;rounded=0;strokeWidth=2;" edge="1" parent="1">
          <mxGeometry width="50" height="50" relative="1" as="geometry">
            <mxPoint x="719" y="680" as="sourcePoint" />
            <mxPoint x="759" y="640" as="targetPoint" />
          </mxGeometry>
        </mxCell>
        <mxCell id="hMm1spZbtBt_gbhy8hQx-13" value="" style="endArrow=none;html=1;rounded=0;strokeWidth=2;" edge="1" parent="1">
          <mxGeometry width="50" height="50" relative="1" as="geometry">
            <mxPoint x="759" y="640" as="sourcePoint" />
            <mxPoint x="850" y="640" as="targetPoint" />
          </mxGeometry>
        </mxCell>
        <mxCell id="hMm1spZbtBt_gbhy8hQx-14" value="&lt;b&gt;SWD&lt;/b&gt;" style="text;html=1;align=center;verticalAlign=middle;whiteSpace=wrap;rounded=0;" vertex="1" parent="1">
          <mxGeometry x="-60" y="428" width="60" height="30" as="geometry" />
        </mxCell>
        <mxCell id="hMm1spZbtBt_gbhy8hQx-15" value="&lt;b&gt;SWC&lt;/b&gt;" style="text;html=1;align=center;verticalAlign=middle;whiteSpace=wrap;rounded=0;" vertex="1" parent="1">
          <mxGeometry x="-60" y="504" width="60" height="30" as="geometry" />
        </mxCell>
        <mxCell id="hMm1spZbtBt_gbhy8hQx-16" value="&lt;b&gt;SWAB&lt;/b&gt;" style="text;html=1;align=center;verticalAlign=middle;whiteSpace=wrap;rounded=0;" vertex="1" parent="1">
          <mxGeometry x="-60" y="585" width="60" height="30" as="geometry" />
        </mxCell>
        <mxCell id="hMm1spZbtBt_gbhy8hQx-17" value="&lt;b&gt;CAMP&lt;/b&gt;" style="text;html=1;align=center;verticalAlign=middle;whiteSpace=wrap;rounded=0;" vertex="1" parent="1">
          <mxGeometry x="-80" y="664" width="80" height="30" as="geometry" />
        </mxCell>
        <mxCell id="hMm1spZbtBt_gbhy8hQx-19" value="" style="endArrow=none;dashed=1;html=1;rounded=0;" edge="1" parent="1">
          <mxGeometry width="50" height="50" relative="1" as="geometry">
            <mxPoint x="329" y="459" as="sourcePoint" />
            <mxPoint x="329" y="389" as="targetPoint" />
          </mxGeometry>
        </mxCell>
        <mxCell id="hMm1spZbtBt_gbhy8hQx-20" value="" style="endArrow=none;dashed=1;html=1;rounded=0;" edge="1" parent="1">
          <mxGeometry width="50" height="50" relative="1" as="geometry">
            <mxPoint x="439" y="720" as="sourcePoint" />
            <mxPoint x="439" y="470" as="targetPoint" />
          </mxGeometry>
        </mxCell>
        <mxCell id="hMm1spZbtBt_gbhy8hQx-21" value="" style="endArrow=none;dashed=1;html=1;rounded=0;" edge="1" parent="1">
          <mxGeometry width="50" height="50" relative="1" as="geometry">
            <mxPoint x="479" y="540" as="sourcePoint" />
            <mxPoint x="479" y="470" as="targetPoint" />
          </mxGeometry>
        </mxCell>
        <mxCell id="hMm1spZbtBt_gbhy8hQx-23" value="" style="endArrow=none;dashed=1;html=1;rounded=0;" edge="1" parent="1">
          <mxGeometry width="50" height="50" relative="1" as="geometry">
            <mxPoint x="559" y="720" as="sourcePoint" />
            <mxPoint x="559" y="550" as="targetPoint" />
          </mxGeometry>
        </mxCell>
        <mxCell id="hMm1spZbtBt_gbhy8hQx-24" value="" style="endArrow=none;dashed=1;html=1;rounded=0;" edge="1" parent="1">
          <mxGeometry width="50" height="50" relative="1" as="geometry">
            <mxPoint x="679" y="720" as="sourcePoint" />
            <mxPoint x="679" y="550" as="targetPoint" />
          </mxGeometry>
        </mxCell>
        <mxCell id="hMm1spZbtBt_gbhy8hQx-26" value="" style="endArrow=none;html=1;rounded=0;strokeWidth=2;exitX=1;exitY=0.5;exitDx=0;exitDy=0;" edge="1" parent="1" source="hMm1spZbtBt_gbhy8hQx-29">
          <mxGeometry width="50" height="50" relative="1" as="geometry">
            <mxPoint x="80" y="360" as="sourcePoint" />
            <mxPoint x="280" y="360" as="targetPoint" />
          </mxGeometry>
        </mxCell>
        <mxCell id="hMm1spZbtBt_gbhy8hQx-27" value="" style="endArrow=none;html=1;rounded=0;strokeWidth=2;" edge="1" parent="1">
          <mxGeometry width="50" height="50" relative="1" as="geometry">
            <mxPoint x="279" y="360" as="sourcePoint" />
            <mxPoint x="289" y="320" as="targetPoint" />
          </mxGeometry>
        </mxCell>
        <mxCell id="hMm1spZbtBt_gbhy8hQx-28" value="" style="endArrow=none;html=1;rounded=0;strokeWidth=2;" edge="1" parent="1">
          <mxGeometry width="50" height="50" relative="1" as="geometry">
            <mxPoint x="289" y="320" as="sourcePoint" />
            <mxPoint x="850" y="320" as="targetPoint" />
          </mxGeometry>
        </mxCell>
        <mxCell id="hMm1spZbtBt_gbhy8hQx-29" value="&lt;div&gt;&lt;b&gt;I2C/I3C&lt;/b&gt;&lt;/div&gt;&lt;b&gt;VR Enable&lt;/b&gt;" style="text;html=1;align=center;verticalAlign=middle;whiteSpace=wrap;rounded=0;" vertex="1" parent="1">
          <mxGeometry x="-70" y="344" width="70" height="30" as="geometry" />
        </mxCell>
        <mxCell id="hMm1spZbtBt_gbhy8hQx-31" value="" style="endArrow=none;dashed=1;html=1;rounded=0;" edge="1" parent="1">
          <mxGeometry width="50" height="50" relative="1" as="geometry">
            <mxPoint x="289" y="720" as="sourcePoint" />
            <mxPoint x="289" y="310" as="targetPoint" />
          </mxGeometry>
        </mxCell>
        <mxCell id="hMm1spZbtBt_gbhy8hQx-37" style="edgeStyle=orthogonalEdgeStyle;rounded=0;orthogonalLoop=1;jettySize=auto;html=1;" edge="1" parent="1" source="hMm1spZbtBt_gbhy8hQx-36">
          <mxGeometry relative="1" as="geometry">
            <mxPoint x="439" y="705" as="targetPoint" />
          </mxGeometry>
        </mxCell>
        <mxCell id="hMm1spZbtBt_gbhy8hQx-40" style="edgeStyle=orthogonalEdgeStyle;rounded=0;orthogonalLoop=1;jettySize=auto;html=1;" edge="1" parent="1" source="hMm1spZbtBt_gbhy8hQx-36">
          <mxGeometry relative="1" as="geometry">
            <mxPoint x="289" y="705" as="targetPoint" />
          </mxGeometry>
        </mxCell>
        <mxCell id="hMm1spZbtBt_gbhy8hQx-36" value="&lt;b&gt;Config 0&lt;/b&gt;" style="text;html=1;align=center;verticalAlign=middle;whiteSpace=wrap;rounded=0;" vertex="1" parent="1">
          <mxGeometry x="329" y="690" width="60" height="30" as="geometry" />
        </mxCell>
        <mxCell id="hMm1spZbtBt_gbhy8hQx-41" style="edgeStyle=orthogonalEdgeStyle;rounded=0;orthogonalLoop=1;jettySize=auto;html=1;" edge="1" parent="1" source="hMm1spZbtBt_gbhy8hQx-43">
          <mxGeometry relative="1" as="geometry">
            <mxPoint x="559" y="705" as="targetPoint" />
          </mxGeometry>
        </mxCell>
        <mxCell id="hMm1spZbtBt_gbhy8hQx-42" style="edgeStyle=orthogonalEdgeStyle;rounded=0;orthogonalLoop=1;jettySize=auto;html=1;" edge="1" parent="1" source="hMm1spZbtBt_gbhy8hQx-43">
          <mxGeometry relative="1" as="geometry">
            <mxPoint x="439" y="705" as="targetPoint" />
          </mxGeometry>
        </mxCell>
        <mxCell id="hMm1spZbtBt_gbhy8hQx-43" value="&lt;b&gt;Config 1&lt;/b&gt;" style="text;html=1;align=center;verticalAlign=middle;whiteSpace=wrap;rounded=0;" vertex="1" parent="1">
          <mxGeometry x="469" y="690" width="60" height="30" as="geometry" />
        </mxCell>
        <mxCell id="hMm1spZbtBt_gbhy8hQx-44" style="edgeStyle=orthogonalEdgeStyle;rounded=0;orthogonalLoop=1;jettySize=auto;html=1;" edge="1" parent="1" source="hMm1spZbtBt_gbhy8hQx-46">
          <mxGeometry relative="1" as="geometry">
            <mxPoint x="679" y="705" as="targetPoint" />
          </mxGeometry>
        </mxCell>
        <mxCell id="hMm1spZbtBt_gbhy8hQx-45" style="edgeStyle=orthogonalEdgeStyle;rounded=0;orthogonalLoop=1;jettySize=auto;html=1;" edge="1" parent="1" source="hMm1spZbtBt_gbhy8hQx-46">
          <mxGeometry relative="1" as="geometry">
            <mxPoint x="559" y="705" as="targetPoint" />
          </mxGeometry>
        </mxCell>
        <mxCell id="hMm1spZbtBt_gbhy8hQx-46" value="&lt;b&gt;Config 2&lt;/b&gt;" style="text;html=1;align=center;verticalAlign=middle;whiteSpace=wrap;rounded=0;" vertex="1" parent="1">
          <mxGeometry x="589" y="690" width="60" height="30" as="geometry" />
        </mxCell>
        <mxCell id="hMm1spZbtBt_gbhy8hQx-47" value="" style="endArrow=classic;html=1;rounded=0;exitX=0.5;exitY=1;exitDx=0;exitDy=0;" edge="1" parent="1" source="hMm1spZbtBt_gbhy8hQx-36">
          <mxGeometry width="50" height="50" relative="1" as="geometry">
            <mxPoint x="569" y="760" as="sourcePoint" />
            <mxPoint x="359" y="760" as="targetPoint" />
          </mxGeometry>
        </mxCell>
        <mxCell id="hMm1spZbtBt_gbhy8hQx-48" value="&lt;b&gt;Enables one buck regulator SWD&lt;/b&gt;" style="text;html=1;align=center;verticalAlign=middle;whiteSpace=wrap;rounded=0;" vertex="1" parent="1">
          <mxGeometry x="294" y="760" width="130" height="30" as="geometry" />
        </mxCell>
        <mxCell id="hMm1spZbtBt_gbhy8hQx-51" value="" style="endArrow=classic;html=1;rounded=0;exitX=0.5;exitY=1;exitDx=0;exitDy=0;" edge="1" parent="1">
          <mxGeometry width="50" height="50" relative="1" as="geometry">
            <mxPoint x="499" y="720" as="sourcePoint" />
            <mxPoint x="499" y="760" as="targetPoint" />
          </mxGeometry>
        </mxCell>
        <mxCell id="hMm1spZbtBt_gbhy8hQx-52" value="&lt;b&gt;Enables one buck regulator SWC&lt;/b&gt;" style="text;html=1;align=center;verticalAlign=middle;whiteSpace=wrap;rounded=0;" vertex="1" parent="1">
          <mxGeometry x="434" y="760" width="130" height="30" as="geometry" />
        </mxCell>
        <mxCell id="hMm1spZbtBt_gbhy8hQx-53" value="" style="endArrow=classic;html=1;rounded=0;exitX=0.5;exitY=1;exitDx=0;exitDy=0;" edge="1" parent="1">
          <mxGeometry width="50" height="50" relative="1" as="geometry">
            <mxPoint x="619" y="720" as="sourcePoint" />
            <mxPoint x="619" y="760" as="targetPoint" />
          </mxGeometry>
        </mxCell>
        <mxCell id="hMm1spZbtBt_gbhy8hQx-54" value="&lt;b&gt;Enables dual phase&amp;nbsp; regulator SWAB&lt;/b&gt;" style="text;html=1;align=center;verticalAlign=middle;whiteSpace=wrap;rounded=0;" vertex="1" parent="1">
          <mxGeometry x="554" y="760" width="130" height="30" as="geometry" />
        </mxCell>
        <mxCell id="hMm1spZbtBt_gbhy8hQx-55" value="" style="endArrow=none;html=1;rounded=0;strokeWidth=2;" edge="1" parent="1">
          <mxGeometry width="50" height="50" relative="1" as="geometry">
            <mxPoint y="120" as="sourcePoint" />
            <mxPoint x="120" y="120" as="targetPoint" />
          </mxGeometry>
        </mxCell>
        <mxCell id="hMm1spZbtBt_gbhy8hQx-56" value="" style="endArrow=none;html=1;rounded=0;strokeWidth=2;" edge="1" parent="1">
          <mxGeometry width="50" height="50" relative="1" as="geometry">
            <mxPoint x="120" y="120" as="sourcePoint" />
            <mxPoint x="160" y="80" as="targetPoint" />
          </mxGeometry>
        </mxCell>
        <mxCell id="hMm1spZbtBt_gbhy8hQx-57" value="" style="endArrow=none;html=1;rounded=0;strokeWidth=2;" edge="1" parent="1">
          <mxGeometry width="50" height="50" relative="1" as="geometry">
            <mxPoint x="160" y="80" as="sourcePoint" />
            <mxPoint x="850" y="80" as="targetPoint" />
          </mxGeometry>
        </mxCell>
        <mxCell id="hMm1spZbtBt_gbhy8hQx-61" value="" style="endArrow=none;html=1;rounded=0;strokeWidth=2;" edge="1" parent="1">
          <mxGeometry width="50" height="50" relative="1" as="geometry">
            <mxPoint y="200" as="sourcePoint" />
            <mxPoint x="160" y="200" as="targetPoint" />
          </mxGeometry>
        </mxCell>
        <mxCell id="hMm1spZbtBt_gbhy8hQx-62" value="" style="endArrow=none;html=1;rounded=0;strokeWidth=2;" edge="1" parent="1">
          <mxGeometry width="50" height="50" relative="1" as="geometry">
            <mxPoint x="160" y="200" as="sourcePoint" />
            <mxPoint x="200" y="160" as="targetPoint" />
          </mxGeometry>
        </mxCell>
        <mxCell id="hMm1spZbtBt_gbhy8hQx-63" value="" style="endArrow=none;html=1;rounded=0;strokeWidth=2;" edge="1" parent="1">
          <mxGeometry width="50" height="50" relative="1" as="geometry">
            <mxPoint x="200" y="160" as="sourcePoint" />
            <mxPoint x="850" y="160" as="targetPoint" />
          </mxGeometry>
        </mxCell>
        <mxCell id="hMm1spZbtBt_gbhy8hQx-64" value="" style="endArrow=none;html=1;rounded=0;strokeWidth=2;" edge="1" parent="1">
          <mxGeometry width="50" height="50" relative="1" as="geometry">
            <mxPoint y="280" as="sourcePoint" />
            <mxPoint x="200" y="280" as="targetPoint" />
          </mxGeometry>
        </mxCell>
        <mxCell id="hMm1spZbtBt_gbhy8hQx-65" value="" style="endArrow=none;html=1;rounded=0;strokeWidth=2;" edge="1" parent="1">
          <mxGeometry width="50" height="50" relative="1" as="geometry">
            <mxPoint x="200" y="280" as="sourcePoint" />
            <mxPoint x="240" y="240" as="targetPoint" />
          </mxGeometry>
        </mxCell>
        <mxCell id="hMm1spZbtBt_gbhy8hQx-66" value="" style="endArrow=none;html=1;rounded=0;strokeWidth=2;" edge="1" parent="1">
          <mxGeometry width="50" height="50" relative="1" as="geometry">
            <mxPoint x="240" y="240" as="sourcePoint" />
            <mxPoint x="850" y="240" as="targetPoint" />
          </mxGeometry>
        </mxCell>
        <mxCell id="hMm1spZbtBt_gbhy8hQx-67" value="" style="endArrow=none;html=1;rounded=0;strokeWidth=2;" edge="1" parent="1">
          <mxGeometry width="50" height="50" relative="1" as="geometry">
            <mxPoint y="40" as="sourcePoint" />
            <mxPoint x="40" y="40" as="targetPoint" />
          </mxGeometry>
        </mxCell>
        <mxCell id="hMm1spZbtBt_gbhy8hQx-68" value="" style="endArrow=none;html=1;rounded=0;strokeWidth=2;" edge="1" parent="1">
          <mxGeometry width="50" height="50" relative="1" as="geometry">
            <mxPoint x="40" y="40" as="sourcePoint" />
            <mxPoint x="80" as="targetPoint" />
          </mxGeometry>
        </mxCell>
        <mxCell id="hMm1spZbtBt_gbhy8hQx-69" value="" style="endArrow=none;html=1;rounded=0;strokeWidth=2;" edge="1" parent="1">
          <mxGeometry width="50" height="50" relative="1" as="geometry">
            <mxPoint x="80" as="sourcePoint" />
            <mxPoint x="850" as="targetPoint" />
          </mxGeometry>
        </mxCell>
        <mxCell id="hMm1spZbtBt_gbhy8hQx-70" value="&lt;b&gt;VIN_MGMT&lt;/b&gt;" style="text;html=1;align=center;verticalAlign=middle;whiteSpace=wrap;rounded=0;" vertex="1" parent="1">
          <mxGeometry x="-70" y="24" width="70" height="30" as="geometry" />
        </mxCell>
        <mxCell id="hMm1spZbtBt_gbhy8hQx-71" value="&lt;b&gt;VOUT_1.8V&lt;/b&gt;" style="text;html=1;align=center;verticalAlign=middle;whiteSpace=wrap;rounded=0;" vertex="1" parent="1">
          <mxGeometry x="-70" y="104" width="70" height="30" as="geometry" />
        </mxCell>
        <mxCell id="hMm1spZbtBt_gbhy8hQx-72" value="&lt;b&gt;VOUT_1.0V&lt;/b&gt;" style="text;html=1;align=center;verticalAlign=middle;whiteSpace=wrap;rounded=0;" vertex="1" parent="1">
          <mxGeometry x="-70" y="185" width="70" height="30" as="geometry" />
        </mxCell>
        <mxCell id="hMm1spZbtBt_gbhy8hQx-73" value="&lt;b&gt;VIN_BULK&lt;/b&gt;" style="text;html=1;align=center;verticalAlign=middle;whiteSpace=wrap;rounded=0;" vertex="1" parent="1">
          <mxGeometry x="-70" y="264" width="70" height="30" as="geometry" />
        </mxCell>
      </root>
    </mxGraphModel>
  </diagram>
</mxfile>
